#N canvas 90 514 450 300 10;
#X obj 166 115 osc~;
#X obj 175 242 dac~;
#X msg 69 14 listen 2343;
#X msg 190 14 listen 0;
#X obj 166 49 netreceive 2343;
#X obj 166 82 unpack float;
#X obj 116 119 print;
#X obj 200 167 *~;
#X msg 364 14 listen 0;
#X msg 277 14 listen 1024;
#X obj 298 49 netreceive 1024;
#X obj 271 119 unpack float;
#X obj 409 254 osc~;
#X obj 418 381 dac~;
#X msg 433 167 listen 0;
#X obj 409 221 unpack float;
#X obj 359 242 print;
#X obj 443 306 *~;
#X msg 607 167 listen 0;
#X obj 514 242 unpack float;
#X msg 312 167 listen 2344;
#X obj 409 188 netreceive 2344;
#X msg 520 148 listen 1025;
#X obj 541 188 netreceive 1025;
#X connect 0 0 7 0;
#X connect 2 0 4 0;
#X connect 3 0 4 0;
#X connect 4 0 5 0;
#X connect 5 0 6 0;
#X connect 5 0 0 0;
#X connect 7 0 1 0;
#X connect 8 0 10 0;
#X connect 9 0 10 0;
#X connect 10 0 11 0;
#X connect 11 0 7 1;
#X connect 12 0 17 0;
#X connect 14 0 21 0;
#X connect 15 0 16 0;
#X connect 15 0 12 0;
#X connect 17 0 13 1;
#X connect 18 0 23 0;
#X connect 19 0 17 1;
#X connect 20 0 21 0;
#X connect 21 0 15 0;
#X connect 22 0 23 0;
#X connect 23 0 19 0;
