#N canvas 689 324 879 427 10;
#X obj 128 118 osc~;
#X obj 175 242 dac~;
#X msg 69 14 listen 2343;
#X msg 273 18 listen 0;
#X obj 108 40 netreceive 2343;
#X obj 174 197 *~;
#X obj 49 119 print 1left;
#X obj 81 66 unpack float float float float float;
#X obj 198 108 osc~;
#X obj 163 111 osc~;
#X obj 237 104 osc~;
#X obj 212 197 *~;
#X obj 244 197 *~;
#X obj 277 192 *~;
#X obj 219 242 dac~;
#X obj 248 237 dac~;
#X obj 282 236 dac~;
#X obj 490 134 osc~;
#X obj 537 258 dac~;
#X msg 635 34 listen 0;
#X obj 536 213 *~;
#X obj 411 135 print 1left;
#X obj 443 82 unpack float float float float float;
#X obj 560 124 osc~;
#X obj 525 127 osc~;
#X obj 599 120 osc~;
#X obj 574 213 *~;
#X obj 606 213 *~;
#X obj 639 208 *~;
#X obj 581 258 dac~;
#X obj 610 253 dac~;
#X obj 644 252 dac~;
#X msg 431 30 listen 2344;
#X obj 470 56 netreceive 2344;
#X connect 0 0 5 0;
#X connect 2 0 4 0;
#X connect 3 0 4 0;
#X connect 4 0 7 0;
#X connect 5 0 1 1;
#X connect 7 0 0 0;
#X connect 7 1 6 0;
#X connect 7 1 9 0;
#X connect 7 2 8 0;
#X connect 7 3 10 0;
#X connect 7 4 5 1;
#X connect 7 4 11 1;
#X connect 7 4 12 1;
#X connect 7 4 13 1;
#X connect 8 0 12 0;
#X connect 9 0 11 0;
#X connect 10 0 13 0;
#X connect 11 0 14 1;
#X connect 12 0 15 1;
#X connect 13 0 16 1;
#X connect 17 0 20 0;
#X connect 19 0 33 0;
#X connect 20 0 18 0;
#X connect 22 0 17 0;
#X connect 22 1 21 0;
#X connect 22 1 24 0;
#X connect 22 2 23 0;
#X connect 22 3 25 0;
#X connect 22 4 20 1;
#X connect 22 4 26 1;
#X connect 22 4 27 1;
#X connect 22 4 28 1;
#X connect 23 0 27 0;
#X connect 24 0 26 0;
#X connect 25 0 28 0;
#X connect 26 0 29 0;
#X connect 27 0 30 0;
#X connect 28 0 31 0;
#X connect 32 0 33 0;
#X connect 33 0 22 0;
