#N canvas 689 324 879 427 10;
#X obj 166 115 osc~;
#X obj 175 242 dac~;
#X msg 69 14 listen 2343;
#X msg 273 18 listen 0;
#X obj 166 49 netreceive 2343;
#X obj 105 118 print;
#X obj 409 254 osc~;
#X obj 418 381 dac~;
#X msg 433 167 listen 0;
#X obj 347 281 print;
#X msg 312 167 listen 2344;
#X obj 409 188 netreceive 2344;
#X obj 165 82 unpack float float;
#X obj 412 217 unpack float float;
#X obj 208 168 *~;
#X obj 443 307 *~;
#X obj 283 125 print;
#X obj 536 276 print;
#X connect 0 0 14 0;
#X connect 2 0 4 0;
#X connect 3 0 4 0;
#X connect 4 0 12 0;
#X connect 6 0 15 0;
#X connect 8 0 11 0;
#X connect 10 0 11 0;
#X connect 11 0 13 0;
#X connect 12 0 5 0;
#X connect 12 0 0 0;
#X connect 12 1 14 1;
#X connect 12 1 16 0;
#X connect 13 0 9 0;
#X connect 13 0 6 0;
#X connect 13 1 15 1;
#X connect 13 1 17 0;
#X connect 14 0 1 1;
#X connect 15 0 7 0;
